<svg xmlns="http://www.w3.org/2000/svg" xmlns:xlink="http://www.w3.org/1999/xlink" width="500" zoomAndPan="magnify" viewBox="0 0 375 374.999991" height="500" preserveAspectRatio="xMidYMid meet" version="1.2"><defs><clipPath id="397b63cf42"><path d="M 72 43.886719 L 304 43.886719 L 304 274.886719 L 72 274.886719 Z M 72 43.886719 "/></clipPath></defs><g id="a25a488bfe"><g clip-rule="nonzero" clip-path="url(#397b63cf42)"><path style=" stroke:none;fill-rule:nonzero;fill:#00838f;fill-opacity:1;" d="M 177.464844 51.464844 C 182.878906 51.464844 187.570312 54.53125 188.109375 58.5 L 190.636719 74.558594 L 191.539062 80.152344 L 197.132812 80.871094 C 205.609375 81.957031 213.910156 84.300781 221.667969 87.910156 L 226.539062 90.253906 L 230.148438 86.285156 L 241.152344 74.378906 C 242.957031 72.574219 245.304688 72.210938 246.929688 72.210938 C 250.175781 72.210938 253.421875 73.65625 256.128906 76 L 264.789062 83.941406 C 267.496094 86.464844 269.300781 89.894531 269.480469 92.960938 C 269.480469 94.40625 269.300781 96.390625 267.855469 98.011719 L 257.03125 109.742188 L 253.242188 113.890625 L 256.308594 118.761719 C 260.277344 125.257812 263.347656 132.113281 265.332031 139.511719 C 265.511719 140.414062 265.871094 141.496094 266.050781 142.757812 L 267.316406 148.171875 L 272.910156 148.53125 L 288.785156 149.613281 C 290.949219 149.792969 292.574219 151.058594 293.476562 152.140625 C 295.640625 154.484375 296.726562 158.273438 296.363281 162.0625 L 295.460938 173.609375 C 295.101562 179.925781 290.949219 184.976562 286.621094 184.976562 C 286.441406 184.976562 286.441406 184.976562 286.261719 184.976562 L 270.382812 183.894531 L 264.789062 183.535156 L 262.804688 188.765625 C 259.738281 197.066406 255.40625 204.644531 249.816406 211.5 L 246.207031 215.828125 L 249.453125 220.519531 L 258.476562 233.511719 C 259.558594 235.136719 259.558594 237.121094 259.378906 238.382812 C 258.835938 241.449219 256.492188 244.699219 253.421875 246.863281 L 243.5 253.71875 C 240.972656 255.523438 238.085938 256.425781 235.199219 256.425781 C 232.3125 256.425781 229.96875 255.34375 228.703125 253.539062 L 219.683594 240.546875 L 216.617188 236.039062 L 211.382812 237.660156 C 210.480469 238.023438 209.21875 238.382812 207.957031 238.742188 C 200.917969 240.726562 193.523438 241.628906 186.125 241.628906 L 179.992188 241.628906 L 178.367188 247.042969 L 173.675781 262.378906 C 172.773438 265.625 168.804688 267.792969 164.113281 267.792969 C 162.671875 267.792969 161.046875 267.609375 159.601562 267.070312 L 148.234375 263.640625 C 144.628906 262.558594 141.5625 260.394531 140.117188 257.507812 C 139.394531 256.246094 138.671875 254.261719 139.394531 252.09375 L 144.085938 236.578125 L 145.710938 231.164062 L 141.019531 228.097656 C 133.800781 223.40625 127.488281 217.632812 122.253906 210.957031 L 118.828125 206.265625 L 113.59375 208.25 L 98.4375 214.386719 C 97.71875 214.746094 96.816406 214.925781 95.914062 214.925781 C 91.765625 214.925781 87.613281 211.5 85.628906 206.628906 L 81.300781 195.800781 C 79.855469 192.375 79.855469 188.765625 81.117188 185.699219 C 81.660156 184.253906 82.921875 182.269531 85.269531 181.367188 L 100.605469 175.234375 L 105.835938 173.25 L 105.296875 167.65625 C 104.574219 159.175781 105.113281 150.695312 107.101562 142.578125 L 108.363281 136.984375 L 103.492188 134.277344 L 89.058594 126.160156 C 87.074219 125.078125 86.171875 123.09375 85.808594 121.46875 C 84.90625 118.402344 85.449219 114.792969 87.253906 111.726562 L 93.207031 101.441406 C 95.550781 97.292969 99.703125 94.585938 103.671875 94.585938 C 104.933594 94.585938 106.199219 94.945312 107.28125 95.488281 L 121.714844 103.605469 L 126.585938 106.3125 L 130.554688 102.523438 C 136.6875 96.75 143.546875 91.878906 151.304688 88.269531 L 156.355469 85.925781 L 155.453125 80.332031 L 152.925781 64.09375 C 152.566406 61.207031 154.007812 58.859375 155.09375 57.777344 C 157.078125 55.433594 160.144531 53.808594 163.390625 53.449219 L 175.300781 51.644531 C 175.839844 51.464844 176.5625 51.464844 177.464844 51.464844 M 177.464844 43.886719 C 176.203125 43.886719 175.121094 44.066406 173.855469 44.246094 L 161.949219 46.050781 C 151.304688 47.675781 143.90625 56.335938 145.347656 65.355469 L 147.875 81.59375 C 139.394531 85.746094 131.816406 90.976562 125.324219 97.109375 C 125.324219 97.109375 118.828125 93.503906 110.886719 88.992188 C 108.722656 87.730469 106.199219 87.1875 103.671875 87.1875 C 97.355469 87.1875 90.679688 91.15625 86.710938 97.832031 L 80.757812 108.117188 C 75.34375 117.5 77.511719 128.503906 85.449219 133.015625 L 99.882812 141.132812 C 97.71875 149.976562 96.996094 159.175781 97.898438 168.558594 C 97.898438 168.558594 91.042969 171.265625 82.5625 174.691406 C 74.082031 178.121094 70.472656 188.945312 74.441406 198.871094 L 78.773438 209.695312 C 82.019531 217.632812 89.058594 222.503906 95.914062 222.503906 C 97.71875 222.503906 99.523438 222.144531 101.144531 221.421875 L 116.300781 215.289062 C 122.074219 222.6875 129.113281 229 136.6875 234.050781 C 136.6875 234.050781 134.523438 240.910156 132 249.570312 C 129.472656 258.046875 135.605469 267.429688 145.890625 270.496094 L 157.257812 273.925781 C 159.421875 274.648438 161.769531 274.828125 163.753906 274.828125 C 171.511719 274.828125 178.367188 270.679688 180.351562 264.183594 L 185.042969 248.847656 C 185.222656 248.847656 185.402344 248.847656 185.765625 248.847656 C 193.523438 248.847656 201.640625 247.765625 209.582031 245.597656 C 210.84375 245.238281 212.105469 244.878906 213.367188 244.515625 C 213.367188 244.515625 217.339844 250.289062 222.390625 257.507812 C 225.097656 261.476562 229.789062 263.460938 235.019531 263.460938 C 239.167969 263.460938 243.5 262.199219 247.46875 259.492188 L 257.390625 252.636719 C 266.234375 246.5 269.300781 235.855469 264.429688 228.640625 L 255.40625 215.828125 C 261.542969 208.433594 266.234375 199.953125 269.660156 190.929688 C 269.660156 190.929688 276.699219 191.472656 285.539062 192.015625 C 285.898438 192.015625 286.078125 192.015625 286.441406 192.015625 C 294.738281 192.015625 301.957031 184.074219 302.859375 173.609375 L 303.761719 162.0625 C 304.484375 151.417969 297.988281 142.21875 289.148438 141.675781 L 273.269531 140.59375 C 273.089844 139.511719 272.726562 138.246094 272.367188 137.164062 C 270.203125 129.046875 266.773438 121.46875 262.625 114.613281 C 262.625 114.613281 267.496094 109.378906 273.449219 102.882812 C 279.402344 96.390625 277.960938 85.203125 270.023438 78.167969 L 261.363281 70.226562 C 257.210938 66.4375 251.980469 64.453125 247.109375 64.453125 C 242.777344 64.453125 238.808594 66.078125 235.921875 69.144531 L 224.917969 81.054688 C 216.617188 77.085938 207.59375 74.558594 198.214844 73.296875 C 198.214844 73.296875 197.132812 66.078125 195.6875 57.238281 C 194.246094 49.300781 186.484375 43.886719 177.464844 43.886719 Z M 177.464844 43.886719 "/></g><path style=" stroke:none;fill-rule:nonzero;fill:#00838f;fill-opacity:1;" d="M 186.304688 100.179688 C 153.289062 100.179688 126.585938 127.0625 126.585938 160.257812 C 126.585938 193.457031 153.289062 220.339844 186.304688 220.339844 C 219.324219 220.339844 246.027344 193.457031 246.027344 160.257812 C 246.207031 127.242188 219.324219 100.179688 186.304688 100.179688 Z M 220.226562 179.382812 C 219.863281 179.382812 219.683594 179.203125 219.324219 179.203125 L 200.917969 167.476562 C 199.835938 166.753906 198.574219 167.117188 197.851562 168.199219 C 197.132812 169.28125 197.492188 170.542969 198.574219 171.265625 L 216.796875 182.8125 C 216.796875 183.714844 216.796875 184.796875 216.074219 185.699219 C 215.355469 186.601562 214.089844 187.140625 212.105469 187.140625 L 199.835938 180.285156 C 198.753906 179.746094 197.492188 180.105469 196.769531 181.1875 C 196.230469 182.269531 196.589844 183.535156 197.671875 184.253906 L 208.859375 190.570312 C 208.679688 191.292969 208.136719 192.375 207.234375 193.097656 C 206.332031 193.816406 204.890625 194.179688 203.085938 193.816406 L 196.589844 189.847656 C 195.507812 189.308594 194.246094 189.488281 193.523438 190.570312 C 192.980469 191.652344 193.160156 192.914062 194.246094 193.636719 L 199.117188 196.523438 C 198.574219 197.605469 197.851562 198.6875 196.769531 199.230469 C 196.410156 199.410156 195.867188 199.589844 194.785156 199.050781 C 191.71875 197.425781 188.289062 195.441406 186.484375 194.539062 C 188.46875 191.472656 187.929688 187.324219 184.863281 185.15625 C 183.960938 184.617188 183.058594 184.074219 182.15625 183.894531 C 182.515625 182.8125 182.515625 181.910156 182.335938 180.828125 C 181.976562 179.023438 181.074219 177.398438 179.628906 176.316406 C 178.726562 175.59375 177.644531 175.234375 176.382812 175.054688 C 177.285156 172.347656 176.382812 169.101562 174.035156 167.296875 C 171.148438 165.128906 166.640625 165.671875 164.472656 168.558594 L 161.226562 173.070312 C 160.683594 172.347656 160.144531 171.625 159.421875 170.902344 C 156.714844 168.738281 152.566406 169.28125 150.222656 171.804688 C 144.988281 168.378906 139.574219 160.441406 139.574219 160.441406 C 139.574219 160.257812 139.394531 160.257812 139.214844 160.078125 L 154.011719 135.902344 C 157.980469 139.871094 163.753906 140.953125 168.082031 141.132812 C 166.457031 143.117188 165.015625 145.105469 163.753906 147.449219 C 162.671875 149.433594 161.226562 152.320312 162.128906 155.75 C 162.308594 156.109375 163.390625 158.996094 166.640625 159.898438 C 168.984375 160.621094 171.691406 159.71875 174.757812 157.371094 L 184.320312 148.710938 C 184.683594 148.351562 186.304688 148.171875 189.554688 150.335938 L 196.230469 154.667969 C 203.988281 159.71875 211.925781 164.769531 219.863281 170.542969 C 222.03125 172.167969 225.277344 174.332031 224.734375 176.679688 C 224.554688 177.578125 224.195312 178.300781 223.652344 178.664062 C 222.929688 179.566406 221.667969 179.746094 220.226562 179.382812 Z M 150.402344 179.023438 L 153.46875 174.875 C 153.828125 174.332031 154.550781 173.972656 155.273438 173.972656 C 155.8125 173.972656 156.355469 174.152344 156.898438 174.511719 C 157.4375 174.875 157.796875 175.59375 157.980469 176.136719 C 158.160156 176.679688 157.980469 177.398438 157.617188 177.941406 L 154.550781 182.089844 C 153.828125 183.171875 152.207031 183.351562 151.121094 182.453125 C 150.582031 182.089844 150.222656 181.367188 150.039062 180.828125 C 149.859375 180.105469 150.039062 179.382812 150.402344 179.023438 Z M 158.160156 184.796875 L 168.261719 171.085938 C 168.625 170.542969 169.347656 170.183594 170.066406 170.183594 C 170.609375 170.183594 171.148438 170.363281 171.691406 170.722656 C 172.773438 171.625 173.132812 173.070312 172.234375 174.152344 L 162.128906 187.863281 C 161.40625 188.945312 159.785156 189.128906 158.699219 188.226562 C 158.160156 187.863281 157.796875 187.140625 157.617188 186.601562 C 157.617188 185.878906 157.796875 185.339844 158.160156 184.796875 Z M 166.097656 190.75 L 173.855469 180.285156 C 174.21875 179.746094 174.9375 179.382812 175.660156 179.382812 C 176.203125 179.382812 176.742188 179.566406 177.285156 179.925781 C 177.824219 180.285156 178.1875 181.007812 178.367188 181.550781 C 178.546875 182.269531 178.367188 182.8125 178.007812 183.351562 L 170.066406 193.636719 C 169.347656 194.71875 167.722656 194.902344 166.640625 194 C 165.558594 193.277344 165.375 191.832031 166.097656 190.75 Z M 173.675781 196.34375 L 174.398438 195.441406 L 179.089844 189.128906 C 179.449219 188.585938 180.171875 188.226562 180.894531 188.226562 C 181.433594 188.226562 181.976562 188.40625 182.515625 188.765625 C 183.597656 189.667969 183.960938 191.113281 183.058594 192.195312 L 177.644531 199.589844 C 176.921875 200.675781 175.300781 200.855469 174.21875 199.953125 C 173.675781 199.589844 173.316406 198.871094 173.132812 198.328125 C 173.132812 197.425781 173.316406 196.886719 173.675781 196.34375 Z M 225.636719 169.460938 C 224.554688 168.378906 223.292969 167.65625 222.390625 166.933594 C 214.632812 161.34375 206.511719 156.109375 198.753906 151.238281 L 191.898438 146.726562 C 185.042969 142.21875 181.796875 144.921875 180.894531 145.824219 L 171.691406 153.945312 C 170.066406 155.207031 168.625 155.75 167.542969 155.566406 C 166.640625 155.386719 166.097656 154.304688 166.097656 154.304688 C 165.917969 153.042969 166.277344 151.597656 167.359375 149.433594 C 170.246094 144.382812 176.5625 135.542969 186.667969 134.277344 C 191.175781 133.738281 196.589844 134.277344 203.265625 135.902344 C 205.25 136.445312 207.234375 136.984375 209.21875 137.886719 C 210.300781 138.429688 211.203125 138.96875 212.285156 138.609375 L 219.863281 136.804688 C 220.042969 136.804688 220.042969 136.625 220.226562 136.625 L 235.019531 161.882812 Z M 216.796875 117.679688 L 212.105469 122.550781 L 218.242188 133.015625 L 212.105469 134.640625 C 211.925781 134.640625 211.746094 134.457031 211.566406 134.277344 C 211.203125 134.097656 211.023438 133.917969 210.84375 133.917969 C 208.859375 133.195312 206.875 132.472656 204.707031 131.933594 C 197.3125 129.949219 191.539062 129.40625 186.304688 130.128906 C 181.433594 130.851562 176.742188 133.015625 172.59375 136.625 C 170.246094 136.804688 161.585938 137.527344 157.257812 132.65625 C 157.078125 132.472656 156.714844 132.292969 156.355469 132.113281 L 164.292969 119.121094 L 161.046875 114.25 C 168.445312 110.101562 177.105469 107.757812 186.304688 107.757812 C 197.671875 107.757812 208.136719 111.363281 216.796875 117.679688 Z M 186.304688 212.941406 C 159.964844 212.941406 137.953125 193.097656 134.523438 167.65625 L 134.703125 167.65625 L 136.871094 164.046875 C 138.671875 166.574219 143.003906 172.167969 147.695312 175.234375 L 146.792969 176.316406 C 145.710938 177.761719 145.347656 179.566406 145.53125 181.367188 C 145.890625 183.171875 146.792969 184.796875 148.234375 185.878906 C 149.5 186.78125 150.941406 187.324219 152.386719 187.324219 C 152.746094 187.324219 152.925781 187.324219 153.289062 187.140625 C 153.648438 188.945312 154.550781 190.570312 155.996094 191.652344 C 157.257812 192.554688 158.699219 193.097656 160.144531 193.097656 C 160.503906 193.097656 160.867188 193.097656 161.226562 192.914062 C 161.40625 194.71875 162.488281 196.34375 163.933594 197.605469 C 165.195312 198.507812 166.640625 199.050781 168.082031 199.050781 C 168.261719 199.050781 168.625 199.050781 168.804688 199.050781 C 169.164062 200.855469 170.066406 202.296875 171.511719 203.378906 C 172.773438 204.28125 174.21875 204.824219 175.660156 204.824219 C 177.824219 204.824219 179.808594 203.921875 181.074219 202.117188 L 183.960938 198.148438 C 185.402344 199.050781 187.929688 200.492188 192.800781 203.019531 C 194.0625 203.5625 195.144531 203.921875 196.046875 203.921875 C 196.949219 203.921875 197.851562 203.742188 198.394531 203.378906 C 200.917969 202.296875 202.363281 199.953125 203.085938 198.328125 C 203.445312 198.328125 203.804688 198.328125 204.167969 198.328125 C 206.332031 198.328125 208.136719 197.789062 209.761719 196.523438 C 211.566406 195.082031 212.46875 193.097656 212.828125 191.652344 C 215.535156 191.472656 217.699219 190.390625 219.144531 188.765625 C 220.40625 187.324219 220.765625 185.519531 220.945312 184.074219 C 220.945312 184.074219 221.128906 184.074219 221.128906 184.074219 C 222.929688 184.074219 224.554688 183.535156 226 182.632812 C 227.621094 181.550781 228.703125 179.746094 229.066406 177.578125 C 229.425781 175.777344 228.886719 174.332031 228.164062 172.890625 L 237.367188 165.851562 L 237.90625 166.933594 C 235.019531 192.734375 213.007812 212.941406 186.304688 212.941406 Z M 186.304688 212.941406 "/><g style="fill:#00838f;fill-opacity:1;"><g transform="translate(56.982511, 318.988141)"><path style="stroke:none" d="M 25.65625 -7.078125 L 10.328125 -7.078125 L 7.40625 0 L -0.421875 0 L 14.28125 -33.015625 L 21.828125 -33.015625 L 36.59375 0 L 28.578125 0 Z M 23.25 -12.875 L 18.015625 -25.515625 L 12.78125 -12.875 Z M 23.25 -12.875 "/></g></g><g style="fill:#00838f;fill-opacity:1;"><g transform="translate(93.103555, 318.988141)"><path style="stroke:none" d="M 30.65625 -6.21875 L 30.65625 0 L 1.796875 0 L 1.796875 -4.953125 L 19.90625 -26.78125 L 2.171875 -26.78125 L 2.171875 -33.015625 L 29.9375 -33.015625 L 29.9375 -28.0625 L 11.890625 -6.21875 Z M 30.65625 -6.21875 "/></g></g><g style="fill:#00838f;fill-opacity:1;"><g transform="translate(124.744828, 318.988141)"><path style="stroke:none" d="M 18.578125 0.5625 C 13.859375 0.5625 10.1875 -0.738281 7.5625 -3.34375 C 4.9375 -5.957031 3.625 -9.6875 3.625 -14.53125 L 3.625 -33.015625 L 11.265625 -33.015625 L 11.265625 -14.8125 C 11.265625 -8.894531 13.71875 -5.9375 18.625 -5.9375 C 21.007812 -5.9375 22.832031 -6.648438 24.09375 -8.078125 C 25.351562 -9.515625 25.984375 -11.757812 25.984375 -14.8125 L 25.984375 -33.015625 L 33.53125 -33.015625 L 33.53125 -14.53125 C 33.53125 -9.6875 32.21875 -5.957031 29.59375 -3.34375 C 26.96875 -0.738281 23.296875 0.5625 18.578125 0.5625 Z M 18.578125 0.5625 "/></g></g><g style="fill:#00838f;fill-opacity:1;"><g transform="translate(161.903287, 318.988141)"><path style="stroke:none" d="M 3.90625 -33.015625 L 11.546875 -33.015625 L 11.546875 -6.21875 L 28.109375 -6.21875 L 28.109375 0 L 3.90625 0 Z M 3.90625 -33.015625 "/></g></g><g style="fill:#00838f;fill-opacity:1;"><g transform="translate(190.385149, 318.988141)"><path style="stroke:none" d=""/></g></g><g style="fill:#00838f;fill-opacity:1;"><g transform="translate(203.730124, 318.988141)"><path style="stroke:none" d="M 19.71875 0.5625 C 16.351562 0.5625 13.304688 -0.164062 10.578125 -1.625 C 7.859375 -3.082031 5.722656 -5.109375 4.171875 -7.703125 C 2.617188 -10.296875 1.84375 -13.226562 1.84375 -16.5 C 1.84375 -19.769531 2.617188 -22.703125 4.171875 -25.296875 C 5.722656 -27.890625 7.859375 -29.914062 10.578125 -31.375 C 13.304688 -32.84375 16.367188 -33.578125 19.765625 -33.578125 C 22.617188 -33.578125 25.203125 -33.070312 27.515625 -32.0625 C 29.828125 -31.0625 31.769531 -29.617188 33.34375 -27.734375 L 28.4375 -23.203125 C 26.207031 -25.773438 23.441406 -27.0625 20.140625 -27.0625 C 18.097656 -27.0625 16.273438 -26.613281 14.671875 -25.71875 C 13.066406 -24.820312 11.816406 -23.570312 10.921875 -21.96875 C 10.023438 -20.363281 9.578125 -18.539062 9.578125 -16.5 C 9.578125 -14.457031 10.023438 -12.632812 10.921875 -11.03125 C 11.816406 -9.425781 13.066406 -8.175781 14.671875 -7.28125 C 16.273438 -6.382812 18.097656 -5.9375 20.140625 -5.9375 C 23.441406 -5.9375 26.207031 -7.242188 28.4375 -9.859375 L 33.34375 -5.328125 C 31.769531 -3.410156 29.816406 -1.945312 27.484375 -0.9375 C 25.160156 0.0625 22.570312 0.5625 19.71875 0.5625 Z M 19.71875 0.5625 "/></g></g><g style="fill:#00838f;fill-opacity:1;"><g transform="translate(238.295034, 318.988141)"><path style="stroke:none" d="M 24.953125 0 L 18.578125 -9.203125 L 11.546875 -9.203125 L 11.546875 0 L 3.90625 0 L 3.90625 -33.015625 L 18.203125 -33.015625 C 21.128906 -33.015625 23.664062 -32.523438 25.8125 -31.546875 C 27.96875 -30.566406 29.625 -29.179688 30.78125 -27.390625 C 31.945312 -25.597656 32.53125 -23.476562 32.53125 -21.03125 C 32.53125 -18.582031 31.941406 -16.46875 30.765625 -14.6875 C 29.585938 -12.914062 27.914062 -11.554688 25.75 -10.609375 L 33.15625 0 Z M 24.796875 -21.03125 C 24.796875 -22.882812 24.195312 -24.304688 23 -25.296875 C 21.8125 -26.285156 20.070312 -26.78125 17.78125 -26.78125 L 11.546875 -26.78125 L 11.546875 -15.28125 L 17.78125 -15.28125 C 20.070312 -15.28125 21.8125 -15.78125 23 -16.78125 C 24.195312 -17.789062 24.796875 -19.207031 24.796875 -21.03125 Z M 24.796875 -21.03125 "/></g></g><g style="fill:#00838f;fill-opacity:1;"><g transform="translate(272.954241, 318.988141)"><path style="stroke:none" d="M 33.953125 0 L 33.90625 -19.8125 L 24.1875 -3.484375 L 20.75 -3.484375 L 11.078125 -19.375 L 11.078125 0 L 3.90625 0 L 3.90625 -33.015625 L 10.234375 -33.015625 L 22.59375 -12.5 L 34.75 -33.015625 L 41.03125 -33.015625 L 41.125 0 Z M 33.953125 0 "/></g></g></g></svg>